<?xml version="1.0" encoding="utf-8"?>
<!-- Generator: Adobe Illustrator 16.0.4, SVG Export Plug-In . SVG Version: 6.00 Build 0)  -->
<!DOCTYPE svg PUBLIC "-//W3C//DTD SVG 1.1//EN" "http://www.w3.org/Graphics/SVG/1.1/DTD/svg11.dtd">
<svg version="1.1" id="Layer_3_copy" xmlns="http://www.w3.org/2000/svg" xmlns:xlink="http://www.w3.org/1999/xlink" x="0px"
	 y="0px" width="512px" height="512px" viewBox="0 0 512 512" enable-background="new 0 0 512 512" xml:space="preserve">
<path fill="#42B5E5" d="M254.584,4c-138.624,0-251,112.376-251,251c0,129.008,97.332,235.265,222.566,249.388V380.829
	c0-15.703,12.73-28.434,28.434-28.434s28.434,12.73,28.434,28.434v123.559C408.252,490.265,505.584,384.008,505.584,255
	C505.584,116.376,393.207,4,254.584,4z M254.583,302.866c-20.576,0-37.256-16.681-37.256-37.258
	c0-20.577,16.681-37.259,37.256-37.259c20.579,0,37.259,16.682,37.259,37.259C291.842,286.186,275.161,302.866,254.583,302.866z
	 M344.024,221.048c-17.213-29.737-50.341-49.878-88.4-49.878c-38.729,0-72.349,20.858-89.291,51.459l-28.609-25.639
	c24.541-36.523,68.098-60.831,117.777-60.831c49.466,0,92.861,24.104,117.458,60.368L344.024,221.048z M401.896,172.984
	c-29.489-49.034-83.972-81.968-146.354-81.968c-61.676,0-115.66,32.179-145.373,80.3l-31.711-27.619
	C118.156,88.485,182.86,52.533,255.95,52.533c73.711,0,138.894,36.556,178.502,92.563L401.896,172.984z"/>
</svg>
